# AST/ASF file generated using VICON BodyLanguage
# -----------------------------------------------
:version 1.10
:name VICON
:units
  mass 1.0
  length 0.45
  angle deg
:documentation
   .ast/.asf automatically generated from VICON data using
   VICON BodyBuilder and BodyLanguage model FoxedUp or BRILLIANT.MOD
:root
   order TX TY TZ RX RY RZ
   axis XYZ
   position 0 0 0  
   orientation 0 0 0 
:bonedata
  begin
     id 1 
     name lhipjoint
     direction 0.584852 -0.759097 0.285867 
     length 2.43633 
     axis 0 0 0  XYZ
  end
  begin
     id 2 
     name lfemur
     direction 0.34202 -0.939693 0  
     length 7.14704  
     axis 0 0 20  XYZ
    dof rx ry rz
    limits (-160.0 20.0)
           (-70.0 70.0)
           (-60.0 70.0)
  end
  begin
     id 3 
     name ltibia
     direction 0.342022 -0.939692 0   
     length 7.68483   
     axis 0 0 20   XYZ
    dof rx
    limits (-10.0 170.0)
  end
  begin
     id 4 
     name lfoot
     direction 0.0999605 -0.274639 0.956337   
     length 2.40452   
     axis -90 7.62852e-016 20   XYZ
    dof rx rz
    limits (-45.0 90.0)
           (-70.0 20.0)
  end
  begin
     id 5 
     name ltoes
     direction 1.53468e-011 -4.21881e-011 1   
     length 1.19837   
     axis -90 7.62852e-016 20   XYZ
    dof rx
    limits (-90.0 20.0)
  end
  begin
     id 6 
     name rhipjoint
     direction -0.569886 -0.769002 0.289597   
     length 2.40495  
     axis 0 0 0  XYZ 
  end
  begin
     id 7 
     name rfemur
     direction -0.34202 -0.939693 0   
     length 7.45086   
     axis 0 0 -20   XYZ
    dof rx ry rz
    limits (-160.0 20.0)
           (-70.0 70.0)
           (-70.0 60.0)
  end
  begin
     id 8 
     name rtibia
     direction -0.34202 -0.939693 0   
     length 7.76831   
     axis 0 0 -20   XYZ
    dof rx
    limits (-10.0 170.0)
 end
 begin
     id 9 
     name rfoot
     direction -0.0798572 -0.219406 0.97236   
     length 2.35911  
     axis -90 -7.62852e-016 -20   XYZ
    dof rx rz
    limits (-45.0 90.0)
           (-20.0 70.0)
  end
  begin
     id 10 
     name rtoes
     direction -1.53469e-011 -4.21728e-011 1   
     length 1.18261   
     axis -90 -7.62852e-016 -20   XYZ
    dof rx
    limits (-90.0 20.0)
  end
  begin
     id 11 
     name lowerback
     direction 0.0242088 0.999437 0.0232389   
     length 2.1561   
     axis 0 0 0   XYZ
    dof rx ry rz
    limits (-20.0 45.0)
           (-30.0 30.0)
           (-30.0 30.0)
  end
  begin
     id 12 
     name upperback
     direction -0.0356893 0.999013 -0.0264323   
     length 2.14431   
     axis 0 0 0   XYZ
    dof rx ry rz
    limits (-20.0 45.0)
           (-30.0 30.0)
           (-30.0 30.0)
  end
  begin
     id 13 
     name thorax
     direction -0.0472163 0.998194 -0.0371284   
     length 2.16169   
     axis 0 0 0   XYZ
    dof rx ry rz
    limits (-20.0 45.0)
           (-30.0 30.0)
           (-30.0 30.0)
  end
  begin
     id 14 
     name lowerneck
     direction 0.00863244 0.999921 0.00911972   
     length 1.58651   
     axis 0 0 0   XYZ
    dof rx ry rz
    limits (-20.0 45.0)
           (-30.0 30.0)
           (-30.0 30.0)
  end
  begin
     id 15 
     name upperneck
     direction 0.149523 0.979068 -0.138086   
     length 1.57486   
     axis 0 0 0   XYZ
    dof rx ry rz
    limits (-20.0 45.0)
           (-30.0 30.0)
           (-30.0 30.0)
  end
  begin
     id 16
     name head
     direction 0.0445219 0.997708 -0.0509576  
     length 1.6019  
     axis 0 0 0   XYZ
    dof rx ry rz
    limits (-20.0 45.0)
           (-30.0 30.0)
           (-30.0 30.0)
  end
  begin
     id 17 
     name lclavicle
     direction 0.911271 0.381667 -0.154644  
     length 3.80848  
     axis 0 0 0   XYZ
    dof ry rz
    limits (-20.0 10.0)
           (0.0 20.0)
  end
  begin
     id 18 
     name lhumerus
     direction 1 -4.49003e-011 2.1308e-027   
     length 5.19069   
     axis 180 -30 -90   XYZ
    dof rx ry rz
    limits (-60.0 90.0)
           (-90.0 90.0)
           (-90.0 90.0)
  end
  begin
     id 19
     name lradius
     direction 1 -4.48914e-011 4.01554e-027   
     length 3.30016   
     axis 180 -30 -90   XYZ
    dof rx
    limits (-10.0 170.0)
  end
  begin
     id 20
     name lwrist
     direction 1 -4.49003e-011 1.1934e-026   
     length 1.65008   
     axis -8.46377e-015 90 90   XYZ
    dof ry
    limits (-180.0 0.0)
 end
  begin
     id 21 
     name lhand
     direction 1 -4.49034e-011 2.38659e-026   
     length 0.707698   
     axis -1.52313e-014 90 90   XYZ
    dof rx rz
    limits (-90.0 90.0)
           (-45.0 45.0)
  end
  begin
     id 22 
     name lfingers
     direction 1 -4.48691e-011 4.77775e-026   
     length 0.570564   
     axis -3.04623e-014 90 90   XYZ
    dof rx
    limits (0.0 90.0)
  end
  begin
     id 23
     name lthumb
     direction 0.707107 -6.34832e-011 0.707107   
     length 0.819219   
     axis -90 45 -1.62303e-014   XYZ
    dof rx rz
    limits (-45.0 45.0)
           (-45.0 45.0)
  end
  begin
     id 24 
     name rclavicle
     direction -0.815579 0.573708 -0.0754329   
     length 3.54371  
     axis 0 0 0   XYZ 
    dof ry rz
    limits (-10.0 20.0)
           (-20.0 0.0)
  end
  begin
     id 25 
     name rhumerus
     direction -1 -4.48956e-011 3.05351e-028  
     length 5.23924   
     axis 180 30 90   XYZ
    dof rx ry rz
    limits (-90.0 60.0)
           (-90.0 90.0)
           (-90.0 90.0)
  end
  begin
     id 26 
     name rradius
     direction -1 -4.49013e-011 3.53849e-027   
     length 3.32953   
     axis 180 30 90   XYZ
    dof rx
    limits (-10.0 170.0)
  end
  begin
     id 27 
     name rwrist
     direction -1 -4.48901e-011 1.19374e-026   
     length 1.66477   
     axis -8.46377e-015 -90 -90   XYZ
    dof ry
    limits (-180.0 0.0)
  end
  begin
     id 28
     name rhand
     direction -1 -4.48877e-011 2.38764e-026   
     length 0.607414   
     axis -1.52313e-014 -90 -90   XYZ
    dof rx rz
    limits (-90.0 90.0)
           (-45.0 45.0)
  end
  begin
     id 29
     name rfingers
     direction -1 -4.48882e-011 4.77521e-026   
     length 0.489712   
     axis -3.04623e-014 -90 -90   XYZ
    dof rx
    limits (0.0 90.0)
  end
  begin
     id 30
     name rthumb
     direction -0.707107 -6.34974e-011 0.707107   
     length 0.703132   
     axis -90 -45 1.62303e-014   XYZ
    dof rx rz
    limits (-45.0 45.0)
           (-45.0 45.0)
  end
:hierarchy
  begin
    root lhipjoint rhipjoint lowerback
    lhipjoint lfemur
    lfemur ltibia
    ltibia lfoot
    lfoot ltoes
    rhipjoint rfemur
    rfemur rtibia
    rtibia rfoot
    rfoot rtoes
    lowerback upperback
    upperback thorax
    thorax lowerneck lclavicle rclavicle
    lowerneck upperneck
    upperneck head
    lclavicle lhumerus
    lhumerus lradius
    lradius lwrist
    lwrist lhand lthumb
    lhand lfingers
    rclavicle rhumerus
    rhumerus rradius
    rradius rwrist
    rwrist rhand rthumb
    rhand rfingers
  end

#!OML:ASF E:\VariousWalksJay\Project 1\Capture day 1\Session 1\Actor2.ASF
:FULLY-SPECIFIED
:DEGREES
1
root 16.5902 17.5897 -27.034 3.87112 -31.5232 -5.81723
lowerback -2.74453 -1.02035 3.85683
upperback 3.70628 -1.52083 -1.29848
thorax 5.25181 -0.578756 -3.62354
lowerneck -8.23289 -8.22482 -8.80358
upperneck 8.50537 -11.8724 15.6484
head 5.40693 -5.32527 5.38414
rclavicle -2.97183e-014 1.43125e-014
rhumerus -30.831 0.484647 -87.4868
rradius 36.4652
rwrist -0.283429
rhand -11.5527 -6.19796
rfingers 7.12502
rthumb 14.488 -35.6721
lclavicle -2.97183e-014 1.43125e-014
lhumerus -24.3145 -5.14609 82.7432
lradius 27.0999
lwrist 3.86297
lhand -8.69056 -6.35187
lfingers 7.12502
lthumb 17.2443 22.903
rfemur -11.4901 -3.09927 23.091
rtibia 33.0306
rfoot -21.8655 -8.98184
rtoes -3.58994
lfemur -8.86751 7.87556 -15.9256
ltibia 32.6579
lfoot -21.35 6.77902
ltoes -11.0652
2
root 16.5781 17.5905 -27.029 3.79376 -31.487 -5.77981
lowerback -2.85661 -0.971591 3.96761
upperback 3.80916 -1.46343 -1.39372
thorax 5.42558 -0.537719 -3.78673
lowerneck -8.24391 -8.29212 -8.63804
upperneck 8.4056 -11.969 15.6238
head 5.3793 -5.37129 5.33864
rclavicle 6.95746e-014 3.18055e-015
rhumerus -30.7468 0.153781 -87.5421
rradius 36.1237
rwrist -0.121962
rhand -11.5485 -6.13599
rfingers 7.12502
rthumb 14.4921 -35.6099
lclavicle 6.95746e-014 3.18055e-015
lhumerus -24.1318 -4.75923 82.5734
lradius 26.3548
lwrist 3.36441
lhand -9.47165 -6.88961
lfingers 7.12502
lthumb 16.4924 22.4294
rfemur -11.3614 -3.13217 23.0751
rtibia 32.9852
rfoot -21.9122 -8.89653
rtoes -3.25171
lfemur -8.8793 8.00164 -15.9424
ltibia 32.8166
lfoot -21.286 6.81933
ltoes -11.1602
3
root 16.5667 17.5908 -27.0298 3.77362 -31.341 -5.72749
lowerback -2.86548 -0.962852 3.97075
upperback 3.82366 -1.45062 -1.43305
thorax 5.44625 -0.52958 -3.8293
lowerneck -8.49235 -8.37611 -8.49669
upperneck 8.50997 -12.0973 15.5774
head 5.45882 -5.41667 5.27727
rclavicle -3.45885e-014 -1.90833e-014
rhumerus -30.7364 -0.154273 -87.5269
rradius 35.7839
rwrist 0.0459478
rhand -11.5166 -6.10649
rfingers 7.12502
rthumb 14.5228 -35.5782
lclavicle -3.45885e-014 -1.90833e-014
lhumerus -24.0254 -4.51906 82.5207
lradius 25.5091
lwrist 2.82003
lhand -7.86353 -6.13462
lfingers 7.12502
lthumb 18.0401 23.0487
rfemur -11.3174 -3.14758 23.0819
rtibia 32.958
rfoot -21.9732 -9.09458
rtoes -3.44685
lfemur -8.97988 8.06478 -15.9631
ltibia 32.9511
lfoot -21.195 6.90927
ltoes -11.2821
4
root 16.556 17.5923 -27.0291 3.73858 -31.1928 -5.68766
lowerback -2.81819 -0.991484 3.89117
upperback 3.7825 -1.4847 -1.37393
thorax 5.37524 -0.553501 -3.72282
lowerneck -8.32765 -8.37946 -8.58024
upperneck 8.44854 -12.0869 15.5475
head 5.41309 -5.42505 5.28875
rclavicle -4.96962e-015 1.03368e-014
rhumerus -30.8278 -0.243093 -87.4028
rradius 35.45
rwrist 0.144306
rhand -11.4313 -6.06828
rfingers 7.12502
rthumb 14.605 -35.534
lclavicle -4.96962e-015 1.03368e-014
lhumerus -24.0866 -3.91177 82.5399
lradius 24.7161
lwrist 2.17727
lhand -9.56314 -7.01367
lfingers 7.12502
lthumb 16.4043 22.3127
rfemur -11.2505 -3.23241 23.0851
rtibia 32.9301
rfoot -22.015 -9.085
rtoes -3.23064
lfemur -9.04398 8.09108 -15.9764
ltibia 33.0728
lfoot -21.1428 6.93194
ltoes -11.1812
5
root 16.5462 17.5906 -27.0257 3.68801 -31.1369 -5.66334
lowerback -2.82039 -1.03336 3.8754
upperback 3.7641 -1.54193 -1.32372
thorax 5.35326 -0.584455 -3.66506
lowerneck -8.18435 -8.34561 -8.72992
upperneck 8.40232 -12.0248 15.5648
head 5.37643 -5.40647 5.33077
rclavicle -3.46879e-014 7.95139e-015
rhumerus -30.9364 -0.16443 -87.3324
rradius 35.1698
rwrist 0.239937
rhand -11.4411 -6.20073
rfingers 7.12502
rthumb 14.5955 -35.6672
lclavicle -3.46879e-014 7.95139e-015
lhumerus -24.2212 -3.21285 82.4873
lradius 24.0546
lwrist 1.57437
lhand -8.25618 -6.34457
lfingers 7.12502
lthumb 17.6623 22.8732
rfemur -11.1684 -3.29398 23.0792
rtibia 32.9177
rfoot -22.0887 -9.10814
rtoes -3.21394
lfemur -9.04943 8.126 -16.0005
ltibia 33.1744
lfoot -21.1501 7.01649
ltoes -11.156
